<?xml version="1.0" encoding="UTF-8" standalone="no"?>
<!-- Created with Inkscape (http://www.inkscape.org/) -->

<svg
   width="150mm"
   height="150mm"
   viewBox="0 0 150 150"
   version="1.1"
   id="svg5"
   xmlns="http://www.w3.org/2000/svg"
   xmlns:svg="http://www.w3.org/2000/svg">
  <defs
     id="defs2" />
  <g
     id="layer1">
    <circle
       style="fill:#66837e;fill-opacity:1;stroke-width:0.266238"
       id="path111"
       cx="-75.296021"
       cy="74.34256"
       r="71.706841"
       transform="scale(-1,1)" />
    <path
       style="fill:#00ff00;fill-opacity:1;stroke-width:0.264583"
       d="M 34.005186,221.0337 105.10694,171.82923"
       id="path18700" />
    <path
       style="fill:#0000ff;fill-opacity:1;stroke-width:0.264583"
       d="m 27.822425,216.91186 c 68.010373,-37.6118 68.010373,-37.6118 68.010373,-37.6118"
       id="path18705" />
    <path
       style="fill:#00ff00;fill-opacity:1;stroke-width:0.264583"
       d="M 102.7884,198.87881 44.052172,250.91705"
       id="path18763" />
    <path
       style="fill:#ff0000;fill-opacity:1;stroke-width:0.264583"
       d="M 54.580215,218.43965 C 118.46874,166.1438 118.46874,166.1438 118.46874,166.1438"
       id="path18827" />
    <path
       style="fill:#ff00ff;fill-opacity:1;stroke-width:0.264583"
       d="M 44.052172,222.32178 105.10694,176.72392"
       id="path19142" />
    <path
       style="fill:#ffffff;fill-opacity:1;stroke-width:0.264583"
       d="m 25.482201,114.52109 c -0.4661,-1.54513 -0.4661,-3.40907 -0.417055,-5.15041 0.04904,-1.74135 0.147144,-3.36 0.367862,-4.8561 0.220717,-1.49611 0.564069,-2.86952 0.882902,-3.9732 0.318832,-1.103675 0.613133,-1.937526 1.128184,-2.943131 0.515051,-1.005604 1.250802,-2.182805 2.133775,-3.163886 0.882972,-0.981081 1.91303,-1.765888 3.065772,-2.501673 1.152743,-0.735785 2.428047,-1.422487 4.193955,-2.060157 1.765908,-0.637669 4.022219,-1.22627 6.425777,-1.667723 2.403558,-0.441452 4.954167,-0.735753 7.529386,-0.981008 2.57522,-0.245254 5.174878,-0.441457 8.044412,-0.564078 2.869534,-0.122622 6.008745,-0.171671 9.491418,-0.220721 3.482673,-0.04905 7.30859,-0.0981 11.110098,-0.0981 3.801507,3e-6 7.578372,0.04905 11.183674,0.196217 3.605303,0.147164 7.038817,0.392415 10.153609,0.735792 3.11478,0.343376 5.91064,0.784827 8.21607,1.299897 2.30543,0.51507 4.12029,1.103672 5.61637,1.692321 1.49607,0.588648 2.67327,1.177248 3.67881,1.864022 1.00554,0.686775 1.83939,1.471578 2.50156,2.182844 0.66217,0.711265 1.15268,1.348923 1.64316,2.182816 0.49048,0.833894 0.98098,1.863944 1.39789,2.918555 0.41691,1.054608 0.76027,2.133718 1.07907,3.678848 0.31881,1.54512 0.61311,3.55617 0.76024,5.6129 0.14713,2.05672 0.14713,4.15901 0.0245,5.3852 -0.12264,1.22619 -0.3679,1.5764 -0.73578,2.0458 -0.36788,0.4694 -0.85838,1.05801 -1.49604,1.74472 -0.63766,0.68671 -1.42247,1.47151 -2.4035,2.40349 -0.98102,0.93197 -2.15823,2.01108 -3.48261,3.09021 -1.32438,1.07912 -2.79588,2.15823 -4.31648,3.23736 -1.5206,1.07914 -3.0902,2.15824 -4.85604,3.21285 -1.76584,1.0546 -3.72786,2.08466 -5.71443,3.01663 -1.98658,0.93198 -3.997635,1.76583 -5.910631,2.45256 -1.912996,0.68672 -3.727851,1.22628 -5.54275,1.69227 -1.814898,0.466 -3.629755,0.8584 -5.297497,1.15271 -1.667742,0.29432 -3.188297,0.49052 -4.831513,0.61316 -1.643216,0.12263 -3.409026,0.17168 -5.346561,0.17169 -1.937535,1e-5 -4.046695,-0.049 -6.131378,-0.22071 -2.084684,-0.17166 -4.14479,-0.46596 -6.401162,-0.90741 -2.256371,-0.44145 -4.708881,-1.03005 -7.038831,-1.7658 -2.32995,-0.73575 -4.537206,-1.61866 -6.720006,-2.59968 -2.1828,-0.98102 -4.341008,-2.06012 -6.327605,-3.18829 -1.986597,-1.12816 -3.801456,-2.30537 -5.542794,-3.53165 -1.741339,-1.22628 -3.409047,-2.50159 -5.027762,-3.87502 -1.618714,-1.37343 -3.188322,-2.84494 -4.43916,-4.19384 -1.250839,-1.3489 -2.18279,-2.57515 -2.648889,-4.12028 z"
       id="path34207" />
  </g>
  <g
     id="layer2">
    <ellipse
       style="fill:#ffffff;stroke-width:0.384101"
       id="path411"
       cx="-74.407104"
       cy="51.334087"
       rx="25.778906"
       ry="24.139111"
       transform="scale(-1,1)" />
  </g>
  <g
     id="layer3">
    <path
       style="fill:#808000;fill-opacity:1;stroke-width:0.635978"
       d="m 33.936839,211.14476 16.64826,-27.37358"
       id="path19144" />
  </g>
</svg>
